<?xml version="1.0" encoding="UTF-8"?>
<svg width="298px" height="138px" viewBox="0 0 298 138" version="1.1" xmlns="http://www.w3.org/2000/svg" xmlns:xlink="http://www.w3.org/1999/xlink">
    <title>Group 3</title>
    <g id="Page-1" stroke="none" stroke-width="1" fill="none" fill-rule="evenodd">
        <g id="Desktop-HD-Copy-2" transform="translate(-1041.000000, -541.000000)">
            <g id="Group-3" transform="translate(1041.000000, 541.000000)">
                <circle id="Oval" fill="#F9B234" transform="translate(101.000000, 37.000000) rotate(-270.000000) translate(-101.000000, -37.000000) " cx="101" cy="37" r="5"></circle>
                <circle id="Oval-Copy-9" fill="#CD1422" transform="translate(5.000000, 37.000000) rotate(-270.000000) translate(-5.000000, -37.000000) " cx="5" cy="37" r="5"></circle>
                <circle id="Oval-Copy" fill="#114D25" transform="translate(101.000000, 21.000000) rotate(-270.000000) translate(-101.000000, -21.000000) " cx="101" cy="21" r="5"></circle>
                <circle id="Oval-Copy-10" fill="#B1165B" transform="translate(5.000000, 21.000000) rotate(-270.000000) translate(-5.000000, -21.000000) " cx="5" cy="21" r="5"></circle>
                <circle id="Oval-Copy-2" fill="#5CAA30" transform="translate(101.000000, 5.000000) rotate(-270.000000) translate(-101.000000, -5.000000) " cx="101" cy="5" r="5"></circle>
                <circle id="Oval-Copy-11" fill="#841916" transform="translate(5.000000, 5.000000) rotate(-270.000000) translate(-5.000000, -5.000000) " cx="5" cy="5" r="5"></circle>
                <circle id="Oval-Copy-3" fill="#146869" transform="translate(101.000000, 53.000000) rotate(-270.000000) translate(-101.000000, -53.000000) " cx="101" cy="53" r="5"></circle>
                <circle id="Oval-Copy-12" fill="#5CAA30" transform="translate(5.000000, 53.000000) rotate(-270.000000) translate(-5.000000, -53.000000) " cx="5" cy="53" r="5"></circle>
                <circle id="Oval-Copy-4" fill="#4576B8" transform="translate(101.000000, 69.000000) rotate(-270.000000) translate(-101.000000, -69.000000) " cx="101" cy="69" r="5"></circle>
                <circle id="Oval-Copy-13" fill="#114D25" transform="translate(5.000000, 69.000000) rotate(-270.000000) translate(-5.000000, -69.000000) " cx="5" cy="69" r="5"></circle>
                <circle id="Oval-Copy-5" fill="#242754" transform="translate(101.000000, 85.000000) rotate(-270.000000) translate(-101.000000, -85.000000) " cx="101" cy="85" r="5"></circle>
                <circle id="Oval-Copy-14" fill="#F9B234" transform="translate(5.000000, 85.000000) rotate(-270.000000) translate(-5.000000, -85.000000) " cx="5" cy="85" r="5"></circle>
                <circle id="Oval-Copy-6" fill="#841916" transform="translate(101.000000, 101.000000) rotate(-270.000000) translate(-101.000000, -101.000000) " cx="101" cy="101" r="5"></circle>
                <circle id="Oval-Copy-15" fill="#146869" transform="translate(5.000000, 101.000000) rotate(-270.000000) translate(-5.000000, -101.000000) " cx="5" cy="101" r="5"></circle>
                <circle id="Oval-Copy-7" fill="#B1165B" transform="translate(101.000000, 117.000000) rotate(-270.000000) translate(-101.000000, -117.000000) " cx="101" cy="117" r="5"></circle>
                <circle id="Oval-Copy-18" fill="#4576B8" transform="translate(5.000000, 117.000000) rotate(-270.000000) translate(-5.000000, -117.000000) " cx="5" cy="117" r="5"></circle>
                <circle id="Oval-Copy-8" fill="#CD1422" transform="translate(101.000000, 133.000000) rotate(-270.000000) translate(-101.000000, -133.000000) " cx="101" cy="133" r="5"></circle>
                <circle id="Oval-Copy-19" fill="#242754" transform="translate(5.000000, 133.000000) rotate(-270.000000) translate(-5.000000, -133.000000) " cx="5" cy="133" r="5"></circle>
                <circle id="Oval" fill="#114D25" transform="translate(117.000000, 37.000000) rotate(-270.000000) translate(-117.000000, -37.000000) " cx="117" cy="37" r="5"></circle>
                <circle id="Oval-Copy-20" fill="#B1165B" transform="translate(21.000000, 37.000000) rotate(-270.000000) translate(-21.000000, -37.000000) " cx="21" cy="37" r="5"></circle>
                <circle id="Oval-Copy" fill="#5CAA30" transform="translate(117.000000, 21.000000) rotate(-270.000000) translate(-117.000000, -21.000000) " cx="117" cy="21" r="5"></circle>
                <circle id="Oval-Copy-21" fill="#841916" transform="translate(21.000000, 21.000000) rotate(-270.000000) translate(-21.000000, -21.000000) " cx="21" cy="21" r="5"></circle>
                <circle id="Oval-Copy-2" fill="#CD1422" transform="translate(117.000000, 5.000000) rotate(-270.000000) translate(-117.000000, -5.000000) " cx="117" cy="5" r="5"></circle>
                <circle id="Oval-Copy-22" fill="#242754" transform="translate(21.000000, 5.000000) rotate(-270.000000) translate(-21.000000, -5.000000) " cx="21" cy="5" r="5"></circle>
                <circle id="Oval-Copy-3" fill="#F9B234" transform="translate(117.000000, 53.000000) rotate(-270.000000) translate(-117.000000, -53.000000) " cx="117" cy="53" r="5"></circle>
                <circle id="Oval-Copy-23" fill="#CD1422" transform="translate(21.000000, 53.000000) rotate(-270.000000) translate(-21.000000, -53.000000) " cx="21" cy="53" r="5"></circle>
                <circle id="Oval-Copy-4" fill="#146869" transform="translate(117.000000, 69.000000) rotate(-270.000000) translate(-117.000000, -69.000000) " cx="117" cy="69" r="5"></circle>
                <circle id="Oval-Copy-27" fill="#5CAA30" transform="translate(21.000000, 69.000000) rotate(-270.000000) translate(-21.000000, -69.000000) " cx="21" cy="69" r="5"></circle>
                <circle id="Oval-Copy-5" fill="#4576B8" transform="translate(117.000000, 85.000000) rotate(-270.000000) translate(-117.000000, -85.000000) " cx="117" cy="85" r="5"></circle>
                <circle id="Oval-Copy-28" fill="#114D25" transform="translate(21.000000, 85.000000) rotate(-270.000000) translate(-21.000000, -85.000000) " cx="21" cy="85" r="5"></circle>
                <circle id="Oval-Copy-6" fill="#242754" transform="translate(117.000000, 101.000000) rotate(-270.000000) translate(-117.000000, -101.000000) " cx="117" cy="101" r="5"></circle>
                <circle id="Oval-Copy-29" fill="#F9B234" transform="translate(21.000000, 101.000000) rotate(-270.000000) translate(-21.000000, -101.000000) " cx="21" cy="101" r="5"></circle>
                <circle id="Oval-Copy-7" fill="#841916" transform="translate(117.000000, 117.000000) rotate(-270.000000) translate(-117.000000, -117.000000) " cx="117" cy="117" r="5"></circle>
                <circle id="Oval-Copy-30" fill="#146869" transform="translate(21.000000, 117.000000) rotate(-270.000000) translate(-21.000000, -117.000000) " cx="21" cy="117" r="5"></circle>
                <circle id="Oval-Copy-8" fill="#B1165B" transform="translate(117.000000, 133.000000) rotate(-270.000000) translate(-117.000000, -133.000000) " cx="117" cy="133" r="5"></circle>
                <circle id="Oval-Copy-31" fill="#4576B8" transform="translate(21.000000, 133.000000) rotate(-270.000000) translate(-21.000000, -133.000000) " cx="21" cy="133" r="5"></circle>
                <circle id="Oval" fill="#5CAA30" transform="translate(133.000000, 37.000000) rotate(-270.000000) translate(-133.000000, -37.000000) " cx="133" cy="37" r="5"></circle>
                <circle id="Oval-Copy-36" fill="#841916" transform="translate(37.000000, 37.000000) rotate(-270.000000) translate(-37.000000, -37.000000) " cx="37" cy="37" r="5"></circle>
                <circle id="Oval-Copy" fill="#CD1422" transform="translate(133.000000, 21.000000) rotate(-270.000000) translate(-133.000000, -21.000000) " cx="133" cy="21" r="5"></circle>
                <circle id="Oval-Copy-37" fill="#242754" transform="translate(37.000000, 21.000000) rotate(-270.000000) translate(-37.000000, -21.000000) " cx="37" cy="21" r="5"></circle>
                <circle id="Oval-Copy-2" fill="#B1165B" transform="translate(133.000000, 5.000000) rotate(-270.000000) translate(-133.000000, -5.000000) " cx="133" cy="5" r="5"></circle>
                <circle id="Oval-Copy-38" fill="#4576B8" transform="translate(37.000000, 5.000000) rotate(-270.000000) translate(-37.000000, -5.000000) " cx="37" cy="5" r="5"></circle>
                <circle id="Oval-Copy-3" fill="#114D25" transform="translate(133.000000, 53.000000) rotate(-270.000000) translate(-133.000000, -53.000000) " cx="133" cy="53" r="5"></circle>
                <circle id="Oval-Copy-39" fill="#B1165B" transform="translate(37.000000, 53.000000) rotate(-270.000000) translate(-37.000000, -53.000000) " cx="37" cy="53" r="5"></circle>
                <circle id="Oval-Copy-4" fill="#F9B234" transform="translate(133.000000, 69.000000) rotate(-270.000000) translate(-133.000000, -69.000000) " cx="133" cy="69" r="5"></circle>
                <circle id="Oval-Copy-45" fill="#CD1422" transform="translate(37.000000, 69.000000) rotate(-270.000000) translate(-37.000000, -69.000000) " cx="37" cy="69" r="5"></circle>
                <circle id="Oval-Copy-5" fill="#146869" transform="translate(133.000000, 85.000000) rotate(-270.000000) translate(-133.000000, -85.000000) " cx="133" cy="85" r="5"></circle>
                <circle id="Oval-Copy-46" fill="#5CAA30" transform="translate(37.000000, 85.000000) rotate(-270.000000) translate(-37.000000, -85.000000) " cx="37" cy="85" r="5"></circle>
                <circle id="Oval-Copy-6" fill="#4576B8" transform="translate(133.000000, 101.000000) rotate(-270.000000) translate(-133.000000, -101.000000) " cx="133" cy="101" r="5"></circle>
                <circle id="Oval-Copy-47" fill="#114D25" transform="translate(37.000000, 101.000000) rotate(-270.000000) translate(-37.000000, -101.000000) " cx="37" cy="101" r="5"></circle>
                <circle id="Oval-Copy-7" fill="#242754" transform="translate(133.000000, 117.000000) rotate(-270.000000) translate(-133.000000, -117.000000) " cx="133" cy="117" r="5"></circle>
                <circle id="Oval-Copy-55" fill="#F9B234" transform="translate(37.000000, 117.000000) rotate(-270.000000) translate(-37.000000, -117.000000) " cx="37" cy="117" r="5"></circle>
                <circle id="Oval-Copy-8" fill="#841916" transform="translate(133.000000, 133.000000) rotate(-270.000000) translate(-133.000000, -133.000000) " cx="133" cy="133" r="5"></circle>
                <circle id="Oval-Copy-56" fill="#146869" transform="translate(37.000000, 133.000000) rotate(-270.000000) translate(-37.000000, -133.000000) " cx="37" cy="133" r="5"></circle>
                <circle id="Oval" fill="#CD1422" transform="translate(149.000000, 37.000000) rotate(-270.000000) translate(-149.000000, -37.000000) " cx="149" cy="37" r="5"></circle>
                <circle id="Oval-Copy-65" fill="#242754" transform="translate(53.000000, 37.000000) rotate(-270.000000) translate(-53.000000, -37.000000) " cx="53" cy="37" r="5"></circle>
                <circle id="Oval-Copy" fill="#B1165B" transform="translate(149.000000, 21.000000) rotate(-270.000000) translate(-149.000000, -21.000000) " cx="149" cy="21" r="5"></circle>
                <circle id="Oval-Copy-119" fill="#4576B8" transform="translate(53.000000, 21.000000) rotate(-270.000000) translate(-53.000000, -21.000000) " cx="53" cy="21" r="5"></circle>
                <circle id="Oval-Copy-2" fill="#841916" transform="translate(149.000000, 5.000000) rotate(-270.000000) translate(-149.000000, -5.000000) " cx="149" cy="5" r="5"></circle>
                <circle id="Oval-Copy-127" fill="#146869" transform="translate(53.000000, 5.000000) rotate(-270.000000) translate(-53.000000, -5.000000) " cx="53" cy="5" r="5"></circle>
                <circle id="Oval-Copy-3" fill="#5CAA30" transform="translate(149.000000, 53.000000) rotate(-270.000000) translate(-149.000000, -53.000000) " cx="149" cy="53" r="5"></circle>
                <circle id="Oval-Copy-128" fill="#841916" transform="translate(53.000000, 53.000000) rotate(-270.000000) translate(-53.000000, -53.000000) " cx="53" cy="53" r="5"></circle>
                <circle id="Oval-Copy-4" fill="#114D25" transform="translate(149.000000, 69.000000) rotate(-270.000000) translate(-149.000000, -69.000000) " cx="149" cy="69" r="5"></circle>
                <circle id="Oval-Copy-134" fill="#B1165B" transform="translate(53.000000, 69.000000) rotate(-270.000000) translate(-53.000000, -69.000000) " cx="53" cy="69" r="5"></circle>
                <circle id="Oval-Copy-5" fill="#F9B234" transform="translate(149.000000, 85.000000) rotate(-270.000000) translate(-149.000000, -85.000000) " cx="149" cy="85" r="5"></circle>
                <circle id="Oval-Copy-135" fill="#CD1422" transform="translate(53.000000, 85.000000) rotate(-270.000000) translate(-53.000000, -85.000000) " cx="53" cy="85" r="5"></circle>
                <circle id="Oval-Copy-6" fill="#146869" transform="translate(149.000000, 101.000000) rotate(-270.000000) translate(-149.000000, -101.000000) " cx="149" cy="101" r="5"></circle>
                <circle id="Oval-Copy-136" fill="#5CAA30" transform="translate(53.000000, 101.000000) rotate(-270.000000) translate(-53.000000, -101.000000) " cx="53" cy="101" r="5"></circle>
                <circle id="Oval-Copy-7" fill="#4576B8" transform="translate(149.000000, 117.000000) rotate(-270.000000) translate(-149.000000, -117.000000) " cx="149" cy="117" r="5"></circle>
                <circle id="Oval-Copy-137" fill="#114D25" transform="translate(53.000000, 117.000000) rotate(-270.000000) translate(-53.000000, -117.000000) " cx="53" cy="117" r="5"></circle>
                <circle id="Oval-Copy-8" fill="#242754" transform="translate(149.000000, 133.000000) rotate(-270.000000) translate(-149.000000, -133.000000) " cx="149" cy="133" r="5"></circle>
                <circle id="Oval-Copy-142" fill="#F9B234" transform="translate(53.000000, 133.000000) rotate(-270.000000) translate(-53.000000, -133.000000) " cx="53" cy="133" r="5"></circle>
                <circle id="Oval" fill="#B1165B" transform="translate(165.000000, 37.000000) rotate(-270.000000) translate(-165.000000, -37.000000) " cx="165" cy="37" r="5"></circle>
                <circle id="Oval-Copy-143" fill="#4576B8" transform="translate(69.000000, 37.000000) rotate(-270.000000) translate(-69.000000, -37.000000) " cx="69" cy="37" r="5"></circle>
                <circle id="Oval-Copy" fill="#841916" transform="translate(165.000000, 21.000000) rotate(-270.000000) translate(-165.000000, -21.000000) " cx="165" cy="21" r="5"></circle>
                <circle id="Oval-Copy-144" fill="#146869" transform="translate(69.000000, 21.000000) rotate(-270.000000) translate(-69.000000, -21.000000) " cx="69" cy="21" r="5"></circle>
                <circle id="Oval-Copy-2" fill="#242754" transform="translate(165.000000, 5.000000) rotate(-270.000000) translate(-165.000000, -5.000000) " cx="165" cy="5" r="5"></circle>
                <circle id="Oval-Copy-145" fill="#F9B234" transform="translate(69.000000, 5.000000) rotate(-270.000000) translate(-69.000000, -5.000000) " cx="69" cy="5" r="5"></circle>
                <circle id="Oval-Copy-3" fill="#CD1422" transform="translate(165.000000, 53.000000) rotate(-270.000000) translate(-165.000000, -53.000000) " cx="165" cy="53" r="5"></circle>
                <circle id="Oval-Copy-146" fill="#242754" transform="translate(69.000000, 53.000000) rotate(-270.000000) translate(-69.000000, -53.000000) " cx="69" cy="53" r="5"></circle>
                <circle id="Oval-Copy-4" fill="#5CAA30" transform="translate(165.000000, 69.000000) rotate(-270.000000) translate(-165.000000, -69.000000) " cx="165" cy="69" r="5"></circle>
                <circle id="Oval-Copy-147" fill="#841916" transform="translate(69.000000, 69.000000) rotate(-270.000000) translate(-69.000000, -69.000000) " cx="69" cy="69" r="5"></circle>
                <circle id="Oval-Copy-5" fill="#114D25" transform="translate(165.000000, 85.000000) rotate(-270.000000) translate(-165.000000, -85.000000) " cx="165" cy="85" r="5"></circle>
                <circle id="Oval-Copy-150" fill="#B1165B" transform="translate(69.000000, 85.000000) rotate(-270.000000) translate(-69.000000, -85.000000) " cx="69" cy="85" r="5"></circle>
                <circle id="Oval-Copy-6" fill="#F9B234" transform="translate(165.000000, 101.000000) rotate(-270.000000) translate(-165.000000, -101.000000) " cx="165" cy="101" r="5"></circle>
                <circle id="Oval-Copy-151" fill="#CD1422" transform="translate(69.000000, 101.000000) rotate(-270.000000) translate(-69.000000, -101.000000) " cx="69" cy="101" r="5"></circle>
                <circle id="Oval-Copy-7" fill="#146869" transform="translate(165.000000, 117.000000) rotate(-270.000000) translate(-165.000000, -117.000000) " cx="165" cy="117" r="5"></circle>
                <circle id="Oval-Copy-152" fill="#5CAA30" transform="translate(69.000000, 117.000000) rotate(-270.000000) translate(-69.000000, -117.000000) " cx="69" cy="117" r="5"></circle>
                <circle id="Oval-Copy-8" fill="#4576B8" transform="translate(165.000000, 133.000000) rotate(-270.000000) translate(-165.000000, -133.000000) " cx="165" cy="133" r="5"></circle>
                <circle id="Oval-Copy-153" fill="#114D25" transform="translate(69.000000, 133.000000) rotate(-270.000000) translate(-69.000000, -133.000000) " cx="69" cy="133" r="5"></circle>
                <circle id="Oval" fill="#841916" transform="translate(181.000000, 37.000000) rotate(-270.000000) translate(-181.000000, -37.000000) " cx="181" cy="37" r="5"></circle>
                <circle id="Oval-Copy-154" fill="#146869" transform="translate(85.000000, 37.000000) rotate(-270.000000) translate(-85.000000, -37.000000) " cx="85" cy="37" r="5"></circle>
                <circle id="Oval-Copy" fill="#242754" transform="translate(181.000000, 21.000000) rotate(-270.000000) translate(-181.000000, -21.000000) " cx="181" cy="21" r="5"></circle>
                <circle id="Oval-Copy-155" fill="#F9B234" transform="translate(85.000000, 21.000000) rotate(-270.000000) translate(-85.000000, -21.000000) " cx="85" cy="21" r="5"></circle>
                <circle id="Oval-Copy-2" fill="#4576B8" transform="translate(181.000000, 5.000000) rotate(-270.000000) translate(-181.000000, -5.000000) " cx="181" cy="5" r="5"></circle>
                <circle id="Oval-Copy-156" fill="#114D25" transform="translate(85.000000, 5.000000) rotate(-270.000000) translate(-85.000000, -5.000000) " cx="85" cy="5" r="5"></circle>
                <circle id="Oval-Copy-3" fill="#B1165B" transform="translate(181.000000, 53.000000) rotate(-270.000000) translate(-181.000000, -53.000000) " cx="181" cy="53" r="5"></circle>
                <circle id="Oval-Copy-157" fill="#4576B8" transform="translate(85.000000, 53.000000) rotate(-270.000000) translate(-85.000000, -53.000000) " cx="85" cy="53" r="5"></circle>
                <circle id="Oval-Copy-4" fill="#CD1422" transform="translate(181.000000, 69.000000) rotate(-270.000000) translate(-181.000000, -69.000000) " cx="181" cy="69" r="5"></circle>
                <circle id="Oval-Copy-158" fill="#242754" transform="translate(85.000000, 69.000000) rotate(-270.000000) translate(-85.000000, -69.000000) " cx="85" cy="69" r="5"></circle>
                <circle id="Oval-Copy-5" fill="#5CAA30" transform="translate(181.000000, 85.000000) rotate(-270.000000) translate(-181.000000, -85.000000) " cx="181" cy="85" r="5"></circle>
                <circle id="Oval-Copy-159" fill="#841916" transform="translate(85.000000, 85.000000) rotate(-270.000000) translate(-85.000000, -85.000000) " cx="85" cy="85" r="5"></circle>
                <circle id="Oval-Copy-6" fill="#114D25" transform="translate(181.000000, 101.000000) rotate(-270.000000) translate(-181.000000, -101.000000) " cx="181" cy="101" r="5"></circle>
                <circle id="Oval-Copy-160" fill="#B1165B" transform="translate(85.000000, 101.000000) rotate(-270.000000) translate(-85.000000, -101.000000) " cx="85" cy="101" r="5"></circle>
                <circle id="Oval-Copy-7" fill="#F9B234" transform="translate(181.000000, 117.000000) rotate(-270.000000) translate(-181.000000, -117.000000) " cx="181" cy="117" r="5"></circle>
                <circle id="Oval-Copy-161" fill="#CD1422" transform="translate(85.000000, 117.000000) rotate(-270.000000) translate(-85.000000, -117.000000) " cx="85" cy="117" r="5"></circle>
                <circle id="Oval-Copy-8" fill="#146869" transform="translate(181.000000, 133.000000) rotate(-270.000000) translate(-181.000000, -133.000000) " cx="181" cy="133" r="5"></circle>
                <circle id="Oval-Copy-162" fill="#5CAA30" transform="translate(85.000000, 133.000000) rotate(-270.000000) translate(-85.000000, -133.000000) " cx="85" cy="133" r="5"></circle>
                <circle id="Oval" fill="#242754" transform="translate(197.000000, 37.000000) rotate(-270.000000) translate(-197.000000, -37.000000) " cx="197" cy="37" r="5"></circle>
                <circle id="Oval-Copy" fill="#4576B8" transform="translate(197.000000, 21.000000) rotate(-270.000000) translate(-197.000000, -21.000000) " cx="197" cy="21" r="5"></circle>
                <circle id="Oval-Copy-2" fill="#146869" transform="translate(197.000000, 5.000000) rotate(-270.000000) translate(-197.000000, -5.000000) " cx="197" cy="5" r="5"></circle>
                <circle id="Oval-Copy-3" fill="#841916" transform="translate(197.000000, 53.000000) rotate(-270.000000) translate(-197.000000, -53.000000) " cx="197" cy="53" r="5"></circle>
                <circle id="Oval-Copy-4" fill="#B1165B" transform="translate(197.000000, 69.000000) rotate(-270.000000) translate(-197.000000, -69.000000) " cx="197" cy="69" r="5"></circle>
                <circle id="Oval-Copy-5" fill="#CD1422" transform="translate(197.000000, 85.000000) rotate(-270.000000) translate(-197.000000, -85.000000) " cx="197" cy="85" r="5"></circle>
                <circle id="Oval-Copy-6" fill="#5CAA30" transform="translate(197.000000, 101.000000) rotate(-270.000000) translate(-197.000000, -101.000000) " cx="197" cy="101" r="5"></circle>
                <circle id="Oval-Copy-7" fill="#114D25" transform="translate(197.000000, 117.000000) rotate(-270.000000) translate(-197.000000, -117.000000) " cx="197" cy="117" r="5"></circle>
                <circle id="Oval-Copy-8" fill="#F9B234" transform="translate(197.000000, 133.000000) rotate(-270.000000) translate(-197.000000, -133.000000) " cx="197" cy="133" r="5"></circle>
                <circle id="Oval" fill="#4576B8" transform="translate(213.000000, 37.000000) rotate(-270.000000) translate(-213.000000, -37.000000) " cx="213" cy="37" r="5"></circle>
                <circle id="Oval-Copy" fill="#146869" transform="translate(213.000000, 21.000000) rotate(-270.000000) translate(-213.000000, -21.000000) " cx="213" cy="21" r="5"></circle>
                <circle id="Oval-Copy-2" fill="#F9B234" transform="translate(213.000000, 5.000000) rotate(-270.000000) translate(-213.000000, -5.000000) " cx="213" cy="5" r="5"></circle>
                <circle id="Oval-Copy-3" fill="#242754" transform="translate(213.000000, 53.000000) rotate(-270.000000) translate(-213.000000, -53.000000) " cx="213" cy="53" r="5"></circle>
                <circle id="Oval-Copy-4" fill="#841916" transform="translate(213.000000, 69.000000) rotate(-270.000000) translate(-213.000000, -69.000000) " cx="213" cy="69" r="5"></circle>
                <circle id="Oval-Copy-5" fill="#B1165B" transform="translate(213.000000, 85.000000) rotate(-270.000000) translate(-213.000000, -85.000000) " cx="213" cy="85" r="5"></circle>
                <circle id="Oval-Copy-6" fill="#CD1422" transform="translate(213.000000, 101.000000) rotate(-270.000000) translate(-213.000000, -101.000000) " cx="213" cy="101" r="5"></circle>
                <circle id="Oval-Copy-7" fill="#5CAA30" transform="translate(213.000000, 117.000000) rotate(-270.000000) translate(-213.000000, -117.000000) " cx="213" cy="117" r="5"></circle>
                <circle id="Oval-Copy-8" fill="#114D25" transform="translate(213.000000, 133.000000) rotate(-270.000000) translate(-213.000000, -133.000000) " cx="213" cy="133" r="5"></circle>
                <circle id="Oval" fill="#146869" transform="translate(229.000000, 37.000000) rotate(-270.000000) translate(-229.000000, -37.000000) " cx="229" cy="37" r="5"></circle>
                <circle id="Oval-Copy" fill="#F9B234" transform="translate(229.000000, 21.000000) rotate(-270.000000) translate(-229.000000, -21.000000) " cx="229" cy="21" r="5"></circle>
                <circle id="Oval-Copy-2" fill="#114D25" transform="translate(229.000000, 5.000000) rotate(-270.000000) translate(-229.000000, -5.000000) " cx="229" cy="5" r="5"></circle>
                <circle id="Oval-Copy-3" fill="#4576B8" transform="translate(229.000000, 53.000000) rotate(-270.000000) translate(-229.000000, -53.000000) " cx="229" cy="53" r="5"></circle>
                <circle id="Oval-Copy-4" fill="#242754" transform="translate(229.000000, 69.000000) rotate(-270.000000) translate(-229.000000, -69.000000) " cx="229" cy="69" r="5"></circle>
                <circle id="Oval-Copy-5" fill="#841916" transform="translate(229.000000, 85.000000) rotate(-270.000000) translate(-229.000000, -85.000000) " cx="229" cy="85" r="5"></circle>
                <circle id="Oval-Copy-6" fill="#B1165B" transform="translate(229.000000, 101.000000) rotate(-270.000000) translate(-229.000000, -101.000000) " cx="229" cy="101" r="5"></circle>
                <circle id="Oval-Copy-7" fill="#CD1422" transform="translate(229.000000, 117.000000) rotate(-270.000000) translate(-229.000000, -117.000000) " cx="229" cy="117" r="5"></circle>
                <circle id="Oval-Copy-8" fill="#5CAA30" transform="translate(229.000000, 133.000000) rotate(-270.000000) translate(-229.000000, -133.000000) " cx="229" cy="133" r="5"></circle>
                <circle id="Oval" fill="#F9B234" transform="translate(245.000000, 37.000000) rotate(-270.000000) translate(-245.000000, -37.000000) " cx="245" cy="37" r="5"></circle>
                <circle id="Oval-Copy" fill="#114D25" transform="translate(245.000000, 21.000000) rotate(-270.000000) translate(-245.000000, -21.000000) " cx="245" cy="21" r="5"></circle>
                <circle id="Oval-Copy-2" fill="#5CAA30" transform="translate(245.000000, 5.000000) rotate(-270.000000) translate(-245.000000, -5.000000) " cx="245" cy="5" r="5"></circle>
                <circle id="Oval-Copy-3" fill="#146869" transform="translate(245.000000, 53.000000) rotate(-270.000000) translate(-245.000000, -53.000000) " cx="245" cy="53" r="5"></circle>
                <circle id="Oval-Copy-4" fill="#4576B8" transform="translate(245.000000, 69.000000) rotate(-270.000000) translate(-245.000000, -69.000000) " cx="245" cy="69" r="5"></circle>
                <circle id="Oval-Copy-5" fill="#242754" transform="translate(245.000000, 85.000000) rotate(-270.000000) translate(-245.000000, -85.000000) " cx="245" cy="85" r="5"></circle>
                <circle id="Oval-Copy-6" fill="#841916" transform="translate(245.000000, 101.000000) rotate(-270.000000) translate(-245.000000, -101.000000) " cx="245" cy="101" r="5"></circle>
                <circle id="Oval-Copy-7" fill="#B1165B" transform="translate(245.000000, 117.000000) rotate(-270.000000) translate(-245.000000, -117.000000) " cx="245" cy="117" r="5"></circle>
                <circle id="Oval-Copy-8" fill="#CD1422" transform="translate(245.000000, 133.000000) rotate(-270.000000) translate(-245.000000, -133.000000) " cx="245" cy="133" r="5"></circle>
                <circle id="Oval" fill="#114D25" transform="translate(261.000000, 37.000000) rotate(-270.000000) translate(-261.000000, -37.000000) " cx="261" cy="37" r="5"></circle>
                <circle id="Oval-Copy" fill="#5CAA30" transform="translate(261.000000, 21.000000) rotate(-270.000000) translate(-261.000000, -21.000000) " cx="261" cy="21" r="5"></circle>
                <circle id="Oval-Copy-2" fill="#CD1422" transform="translate(261.000000, 5.000000) rotate(-270.000000) translate(-261.000000, -5.000000) " cx="261" cy="5" r="5"></circle>
                <circle id="Oval-Copy-3" fill="#F9B234" transform="translate(261.000000, 53.000000) rotate(-270.000000) translate(-261.000000, -53.000000) " cx="261" cy="53" r="5"></circle>
                <circle id="Oval-Copy-4" fill="#146869" transform="translate(261.000000, 69.000000) rotate(-270.000000) translate(-261.000000, -69.000000) " cx="261" cy="69" r="5"></circle>
                <circle id="Oval-Copy-5" fill="#4576B8" transform="translate(261.000000, 85.000000) rotate(-270.000000) translate(-261.000000, -85.000000) " cx="261" cy="85" r="5"></circle>
                <circle id="Oval-Copy-6" fill="#242754" transform="translate(261.000000, 101.000000) rotate(-270.000000) translate(-261.000000, -101.000000) " cx="261" cy="101" r="5"></circle>
                <circle id="Oval-Copy-7" fill="#841916" transform="translate(261.000000, 117.000000) rotate(-270.000000) translate(-261.000000, -117.000000) " cx="261" cy="117" r="5"></circle>
                <circle id="Oval-Copy-8" fill="#B1165B" transform="translate(261.000000, 133.000000) rotate(-270.000000) translate(-261.000000, -133.000000) " cx="261" cy="133" r="5"></circle>
                <circle id="Oval" fill="#5CAA30" transform="translate(277.000000, 37.000000) rotate(-270.000000) translate(-277.000000, -37.000000) " cx="277" cy="37" r="5"></circle>
                <circle id="Oval-Copy" fill="#CD1422" transform="translate(277.000000, 21.000000) rotate(-270.000000) translate(-277.000000, -21.000000) " cx="277" cy="21" r="5"></circle>
                <circle id="Oval-Copy-2" fill="#B1165B" transform="translate(277.000000, 5.000000) rotate(-270.000000) translate(-277.000000, -5.000000) " cx="277" cy="5" r="5"></circle>
                <circle id="Oval-Copy-3" fill="#114D25" transform="translate(277.000000, 53.000000) rotate(-270.000000) translate(-277.000000, -53.000000) " cx="277" cy="53" r="5"></circle>
                <circle id="Oval-Copy-4" fill="#F9B234" transform="translate(277.000000, 69.000000) rotate(-270.000000) translate(-277.000000, -69.000000) " cx="277" cy="69" r="5"></circle>
                <circle id="Oval-Copy-5" fill="#146869" transform="translate(277.000000, 85.000000) rotate(-270.000000) translate(-277.000000, -85.000000) " cx="277" cy="85" r="5"></circle>
                <circle id="Oval-Copy-6" fill="#4576B8" transform="translate(277.000000, 101.000000) rotate(-270.000000) translate(-277.000000, -101.000000) " cx="277" cy="101" r="5"></circle>
                <circle id="Oval-Copy-7" fill="#242754" transform="translate(277.000000, 117.000000) rotate(-270.000000) translate(-277.000000, -117.000000) " cx="277" cy="117" r="5"></circle>
                <circle id="Oval-Copy-8" fill="#841916" transform="translate(277.000000, 133.000000) rotate(-270.000000) translate(-277.000000, -133.000000) " cx="277" cy="133" r="5"></circle>
                <circle id="Oval" fill="#CD1422" transform="translate(293.000000, 37.000000) rotate(-270.000000) translate(-293.000000, -37.000000) " cx="293" cy="37" r="5"></circle>
                <circle id="Oval-Copy" fill="#B1165B" transform="translate(293.000000, 21.000000) rotate(-270.000000) translate(-293.000000, -21.000000) " cx="293" cy="21" r="5"></circle>
                <circle id="Oval-Copy-2" fill="#841916" transform="translate(293.000000, 5.000000) rotate(-270.000000) translate(-293.000000, -5.000000) " cx="293" cy="5" r="5"></circle>
                <circle id="Oval-Copy-3" fill="#5CAA30" transform="translate(293.000000, 53.000000) rotate(-270.000000) translate(-293.000000, -53.000000) " cx="293" cy="53" r="5"></circle>
                <circle id="Oval-Copy-4" fill="#114D25" transform="translate(293.000000, 69.000000) rotate(-270.000000) translate(-293.000000, -69.000000) " cx="293" cy="69" r="5"></circle>
                <circle id="Oval-Copy-5" fill="#F9B234" transform="translate(293.000000, 85.000000) rotate(-270.000000) translate(-293.000000, -85.000000) " cx="293" cy="85" r="5"></circle>
                <circle id="Oval-Copy-6" fill="#146869" transform="translate(293.000000, 101.000000) rotate(-270.000000) translate(-293.000000, -101.000000) " cx="293" cy="101" r="5"></circle>
                <circle id="Oval-Copy-7" fill="#4576B8" transform="translate(293.000000, 117.000000) rotate(-270.000000) translate(-293.000000, -117.000000) " cx="293" cy="117" r="5"></circle>
                <circle id="Oval-Copy-8" fill="#242754" transform="translate(293.000000, 133.000000) rotate(-270.000000) translate(-293.000000, -133.000000) " cx="293" cy="133" r="5"></circle>
            </g>
        </g>
    </g>
</svg>