<?xml version="1.0" encoding="UTF-8"?>
<svg width="298px" height="138px" viewBox="0 0 298 138" version="1.1" xmlns="http://www.w3.org/2000/svg" xmlns:xlink="http://www.w3.org/1999/xlink">
    <title>Group 4</title>
    <g id="Page-1" stroke="none" stroke-width="1" fill="none" fill-rule="evenodd">
        <g id="Desktop-HD-Copy-2" transform="translate(-376.000000, -541.000000)">
            <g id="Group-4" transform="translate(376.000000, 541.000000)">
                <g id="Group-3" transform="translate(5.000000, 69.000000) rotate(-270.000000) translate(-5.000000, -69.000000) translate(-64.000000, 64.000000)">
                    <circle id="Oval" fill="#CD1422" cx="37" cy="5" r="5"></circle>
                    <circle id="Oval-Copy" fill="#B1165B" cx="21" cy="5" r="5"></circle>
                    <circle id="Oval-Copy-2" fill="#841916" cx="5" cy="5" r="5"></circle>
                    <circle id="Oval-Copy-3" fill="#5CAA30" cx="53" cy="5" r="5"></circle>
                    <circle id="Oval-Copy-4" fill="#114D25" cx="69" cy="5" r="5"></circle>
                    <circle id="Oval-Copy-5" fill="#F9B234" cx="85" cy="5" r="5"></circle>
                    <circle id="Oval-Copy-6" fill="#146869" cx="101" cy="5" r="5"></circle>
                    <circle id="Oval-Copy-7" fill="#4576B8" cx="117" cy="5" r="5"></circle>
                    <circle id="Oval-Copy-8" fill="#242754" cx="133" cy="5" r="5"></circle>
                </g>
                <g id="Group-3-Copy" transform="translate(21.000000, 69.000000) rotate(-270.000000) translate(-21.000000, -69.000000) translate(-48.000000, 64.000000)">
                    <circle id="Oval" fill="#CD1422" cx="37" cy="5" r="5"></circle>
                    <circle id="Oval-Copy" fill="#B1165B" cx="21" cy="5" r="5"></circle>
                    <circle id="Oval-Copy-2" fill="#841916" cx="5" cy="5" r="5"></circle>
                    <circle id="Oval-Copy-3" fill="#5CAA30" cx="53" cy="5" r="5"></circle>
                    <circle id="Oval-Copy-4" fill="#114D25" cx="69" cy="5" r="5"></circle>
                    <circle id="Oval-Copy-5" fill="#F9B234" cx="85" cy="5" r="5"></circle>
                    <circle id="Oval-Copy-6" fill="#146869" cx="101" cy="5" r="5"></circle>
                    <circle id="Oval-Copy-7" fill="#4576B8" cx="117" cy="5" r="5"></circle>
                    <circle id="Oval-Copy-8" fill="#242754" cx="133" cy="5" r="5"></circle>
                </g>
                <g id="Group-3-Copy-2" transform="translate(37.000000, 69.000000) rotate(-270.000000) translate(-37.000000, -69.000000) translate(-32.000000, 64.000000)">
                    <circle id="Oval" fill="#CD1422" cx="37" cy="5" r="5"></circle>
                    <circle id="Oval-Copy" fill="#B1165B" cx="21" cy="5" r="5"></circle>
                    <circle id="Oval-Copy-2" fill="#841916" cx="5" cy="5" r="5"></circle>
                    <circle id="Oval-Copy-3" fill="#5CAA30" cx="53" cy="5" r="5"></circle>
                    <circle id="Oval-Copy-4" fill="#114D25" cx="69" cy="5" r="5"></circle>
                    <circle id="Oval-Copy-5" fill="#F9B234" cx="85" cy="5" r="5"></circle>
                    <circle id="Oval-Copy-6" fill="#146869" cx="101" cy="5" r="5"></circle>
                    <circle id="Oval-Copy-7" fill="#4576B8" cx="117" cy="5" r="5"></circle>
                    <circle id="Oval-Copy-8" fill="#242754" cx="133" cy="5" r="5"></circle>
                </g>
                <g id="Group-3-Copy-3" transform="translate(53.000000, 69.000000) rotate(-270.000000) translate(-53.000000, -69.000000) translate(-16.000000, 64.000000)">
                    <circle id="Oval" fill="#CD1422" cx="37" cy="5" r="5"></circle>
                    <circle id="Oval-Copy" fill="#B1165B" cx="21" cy="5" r="5"></circle>
                    <circle id="Oval-Copy-2" fill="#841916" cx="5" cy="5" r="5"></circle>
                    <circle id="Oval-Copy-3" fill="#5CAA30" cx="53" cy="5" r="5"></circle>
                    <circle id="Oval-Copy-4" fill="#114D25" cx="69" cy="5" r="5"></circle>
                    <circle id="Oval-Copy-5" fill="#F9B234" cx="85" cy="5" r="5"></circle>
                    <circle id="Oval-Copy-6" fill="#146869" cx="101" cy="5" r="5"></circle>
                    <circle id="Oval-Copy-7" fill="#4576B8" cx="117" cy="5" r="5"></circle>
                    <circle id="Oval-Copy-8" fill="#242754" cx="133" cy="5" r="5"></circle>
                </g>
                <g id="Group-3-Copy-4" transform="translate(69.000000, 69.000000) rotate(-270.000000) translate(-69.000000, -69.000000) translate(-0.000000, 64.000000)">
                    <circle id="Oval" fill="#CD1422" cx="37" cy="5" r="5"></circle>
                    <circle id="Oval-Copy" fill="#B1165B" cx="21" cy="5" r="5"></circle>
                    <circle id="Oval-Copy-2" fill="#841916" cx="5" cy="5" r="5"></circle>
                    <circle id="Oval-Copy-3" fill="#5CAA30" cx="53" cy="5" r="5"></circle>
                    <circle id="Oval-Copy-4" fill="#114D25" cx="69" cy="5" r="5"></circle>
                    <circle id="Oval-Copy-5" fill="#F9B234" cx="85" cy="5" r="5"></circle>
                    <circle id="Oval-Copy-6" fill="#146869" cx="101" cy="5" r="5"></circle>
                    <circle id="Oval-Copy-7" fill="#4576B8" cx="117" cy="5" r="5"></circle>
                    <circle id="Oval-Copy-8" fill="#242754" cx="133" cy="5" r="5"></circle>
                </g>
                <g id="Group-3-Copy-5" transform="translate(85.000000, 69.000000) rotate(-270.000000) translate(-85.000000, -69.000000) translate(16.000000, 64.000000)">
                    <circle id="Oval" fill="#CD1422" cx="37" cy="5" r="5"></circle>
                    <circle id="Oval-Copy" fill="#B1165B" cx="21" cy="5" r="5"></circle>
                    <circle id="Oval-Copy-2" fill="#841916" cx="5" cy="5" r="5"></circle>
                    <circle id="Oval-Copy-3" fill="#5CAA30" cx="53" cy="5" r="5"></circle>
                    <circle id="Oval-Copy-4" fill="#114D25" cx="69" cy="5" r="5"></circle>
                    <circle id="Oval-Copy-5" fill="#F9B234" cx="85" cy="5" r="5"></circle>
                    <circle id="Oval-Copy-6" fill="#146869" cx="101" cy="5" r="5"></circle>
                    <circle id="Oval-Copy-7" fill="#4576B8" cx="117" cy="5" r="5"></circle>
                    <circle id="Oval-Copy-8" fill="#242754" cx="133" cy="5" r="5"></circle>
                </g>
                <g id="Group-3-Copy-6" transform="translate(101.000000, 69.000000) rotate(-270.000000) translate(-101.000000, -69.000000) translate(32.000000, 64.000000)">
                    <circle id="Oval" fill="#CD1422" cx="37" cy="5" r="5"></circle>
                    <circle id="Oval-Copy" fill="#B1165B" cx="21" cy="5" r="5"></circle>
                    <circle id="Oval-Copy-2" fill="#841916" cx="5" cy="5" r="5"></circle>
                    <circle id="Oval-Copy-3" fill="#5CAA30" cx="53" cy="5" r="5"></circle>
                    <circle id="Oval-Copy-4" fill="#114D25" cx="69" cy="5" r="5"></circle>
                    <circle id="Oval-Copy-5" fill="#F9B234" cx="85" cy="5" r="5"></circle>
                    <circle id="Oval-Copy-6" fill="#146869" cx="101" cy="5" r="5"></circle>
                    <circle id="Oval-Copy-7" fill="#4576B8" cx="117" cy="5" r="5"></circle>
                    <circle id="Oval-Copy-8" fill="#242754" cx="133" cy="5" r="5"></circle>
                </g>
                <g id="Group-3-Copy-7" transform="translate(117.000000, 69.000000) rotate(-270.000000) translate(-117.000000, -69.000000) translate(48.000000, 64.000000)">
                    <circle id="Oval" fill="#CD1422" cx="37" cy="5" r="5"></circle>
                    <circle id="Oval-Copy" fill="#B1165B" cx="21" cy="5" r="5"></circle>
                    <circle id="Oval-Copy-2" fill="#841916" cx="5" cy="5" r="5"></circle>
                    <circle id="Oval-Copy-3" fill="#5CAA30" cx="53" cy="5" r="5"></circle>
                    <circle id="Oval-Copy-4" fill="#114D25" cx="69" cy="5" r="5"></circle>
                    <circle id="Oval-Copy-5" fill="#F9B234" cx="85" cy="5" r="5"></circle>
                    <circle id="Oval-Copy-6" fill="#146869" cx="101" cy="5" r="5"></circle>
                    <circle id="Oval-Copy-7" fill="#4576B8" cx="117" cy="5" r="5"></circle>
                    <circle id="Oval-Copy-8" fill="#242754" cx="133" cy="5" r="5"></circle>
                </g>
                <g id="Group-3-Copy-8" transform="translate(133.000000, 69.000000) rotate(-270.000000) translate(-133.000000, -69.000000) translate(64.000000, 64.000000)">
                    <circle id="Oval" fill="#CD1422" cx="37" cy="5" r="5"></circle>
                    <circle id="Oval-Copy" fill="#B1165B" cx="21" cy="5" r="5"></circle>
                    <circle id="Oval-Copy-2" fill="#841916" cx="5" cy="5" r="5"></circle>
                    <circle id="Oval-Copy-3" fill="#5CAA30" cx="53" cy="5" r="5"></circle>
                    <circle id="Oval-Copy-4" fill="#114D25" cx="69" cy="5" r="5"></circle>
                    <circle id="Oval-Copy-5" fill="#F9B234" cx="85" cy="5" r="5"></circle>
                    <circle id="Oval-Copy-6" fill="#146869" cx="101" cy="5" r="5"></circle>
                    <circle id="Oval-Copy-7" fill="#4576B8" cx="117" cy="5" r="5"></circle>
                    <circle id="Oval-Copy-8" fill="#242754" cx="133" cy="5" r="5"></circle>
                </g>
                <g id="Group-3-Copy-9" transform="translate(149.000000, 69.000000) rotate(-270.000000) translate(-149.000000, -69.000000) translate(80.000000, 64.000000)">
                    <circle id="Oval" fill="#CD1422" cx="37" cy="5" r="5"></circle>
                    <circle id="Oval-Copy" fill="#B1165B" cx="21" cy="5" r="5"></circle>
                    <circle id="Oval-Copy-2" fill="#841916" cx="5" cy="5" r="5"></circle>
                    <circle id="Oval-Copy-3" fill="#5CAA30" cx="53" cy="5" r="5"></circle>
                    <circle id="Oval-Copy-4" fill="#114D25" cx="69" cy="5" r="5"></circle>
                    <circle id="Oval-Copy-5" fill="#F9B234" cx="85" cy="5" r="5"></circle>
                    <circle id="Oval-Copy-6" fill="#146869" cx="101" cy="5" r="5"></circle>
                    <circle id="Oval-Copy-7" fill="#4576B8" cx="117" cy="5" r="5"></circle>
                    <circle id="Oval-Copy-8" fill="#242754" cx="133" cy="5" r="5"></circle>
                </g>
                <g id="Group-3-Copy-10" transform="translate(165.000000, 69.000000) rotate(-270.000000) translate(-165.000000, -69.000000) translate(96.000000, 64.000000)">
                    <circle id="Oval" fill="#CD1422" cx="37" cy="5" r="5"></circle>
                    <circle id="Oval-Copy" fill="#B1165B" cx="21" cy="5" r="5"></circle>
                    <circle id="Oval-Copy-2" fill="#841916" cx="5" cy="5" r="5"></circle>
                    <circle id="Oval-Copy-3" fill="#5CAA30" cx="53" cy="5" r="5"></circle>
                    <circle id="Oval-Copy-4" fill="#114D25" cx="69" cy="5" r="5"></circle>
                    <circle id="Oval-Copy-5" fill="#F9B234" cx="85" cy="5" r="5"></circle>
                    <circle id="Oval-Copy-6" fill="#146869" cx="101" cy="5" r="5"></circle>
                    <circle id="Oval-Copy-7" fill="#4576B8" cx="117" cy="5" r="5"></circle>
                    <circle id="Oval-Copy-8" fill="#242754" cx="133" cy="5" r="5"></circle>
                </g>
                <g id="Group-3-Copy-11" transform="translate(181.000000, 69.000000) rotate(-270.000000) translate(-181.000000, -69.000000) translate(112.000000, 64.000000)">
                    <circle id="Oval" fill="#CD1422" cx="37" cy="5" r="5"></circle>
                    <circle id="Oval-Copy" fill="#B1165B" cx="21" cy="5" r="5"></circle>
                    <circle id="Oval-Copy-2" fill="#841916" cx="5" cy="5" r="5"></circle>
                    <circle id="Oval-Copy-3" fill="#5CAA30" cx="53" cy="5" r="5"></circle>
                    <circle id="Oval-Copy-4" fill="#114D25" cx="69" cy="5" r="5"></circle>
                    <circle id="Oval-Copy-5" fill="#F9B234" cx="85" cy="5" r="5"></circle>
                    <circle id="Oval-Copy-6" fill="#146869" cx="101" cy="5" r="5"></circle>
                    <circle id="Oval-Copy-7" fill="#4576B8" cx="117" cy="5" r="5"></circle>
                    <circle id="Oval-Copy-8" fill="#242754" cx="133" cy="5" r="5"></circle>
                </g>
                <g id="Group-3-Copy-12" transform="translate(197.000000, 69.000000) rotate(-270.000000) translate(-197.000000, -69.000000) translate(128.000000, 64.000000)">
                    <circle id="Oval" fill="#CD1422" cx="37" cy="5" r="5"></circle>
                    <circle id="Oval-Copy" fill="#B1165B" cx="21" cy="5" r="5"></circle>
                    <circle id="Oval-Copy-2" fill="#841916" cx="5" cy="5" r="5"></circle>
                    <circle id="Oval-Copy-3" fill="#5CAA30" cx="53" cy="5" r="5"></circle>
                    <circle id="Oval-Copy-4" fill="#114D25" cx="69" cy="5" r="5"></circle>
                    <circle id="Oval-Copy-5" fill="#F9B234" cx="85" cy="5" r="5"></circle>
                    <circle id="Oval-Copy-6" fill="#146869" cx="101" cy="5" r="5"></circle>
                    <circle id="Oval-Copy-7" fill="#4576B8" cx="117" cy="5" r="5"></circle>
                    <circle id="Oval-Copy-8" fill="#242754" cx="133" cy="5" r="5"></circle>
                </g>
                <g id="Group-3-Copy-13" transform="translate(213.000000, 69.000000) rotate(-270.000000) translate(-213.000000, -69.000000) translate(144.000000, 64.000000)">
                    <circle id="Oval" fill="#CD1422" cx="37" cy="5" r="5"></circle>
                    <circle id="Oval-Copy" fill="#B1165B" cx="21" cy="5" r="5"></circle>
                    <circle id="Oval-Copy-2" fill="#841916" cx="5" cy="5" r="5"></circle>
                    <circle id="Oval-Copy-3" fill="#5CAA30" cx="53" cy="5" r="5"></circle>
                    <circle id="Oval-Copy-4" fill="#114D25" cx="69" cy="5" r="5"></circle>
                    <circle id="Oval-Copy-5" fill="#F9B234" cx="85" cy="5" r="5"></circle>
                    <circle id="Oval-Copy-6" fill="#146869" cx="101" cy="5" r="5"></circle>
                    <circle id="Oval-Copy-7" fill="#4576B8" cx="117" cy="5" r="5"></circle>
                    <circle id="Oval-Copy-8" fill="#242754" cx="133" cy="5" r="5"></circle>
                </g>
                <g id="Group-3-Copy-14" transform="translate(229.000000, 69.000000) rotate(-270.000000) translate(-229.000000, -69.000000) translate(160.000000, 64.000000)">
                    <circle id="Oval" fill="#CD1422" cx="37" cy="5" r="5"></circle>
                    <circle id="Oval-Copy" fill="#B1165B" cx="21" cy="5" r="5"></circle>
                    <circle id="Oval-Copy-2" fill="#841916" cx="5" cy="5" r="5"></circle>
                    <circle id="Oval-Copy-3" fill="#5CAA30" cx="53" cy="5" r="5"></circle>
                    <circle id="Oval-Copy-4" fill="#114D25" cx="69" cy="5" r="5"></circle>
                    <circle id="Oval-Copy-5" fill="#F9B234" cx="85" cy="5" r="5"></circle>
                    <circle id="Oval-Copy-6" fill="#146869" cx="101" cy="5" r="5"></circle>
                    <circle id="Oval-Copy-7" fill="#4576B8" cx="117" cy="5" r="5"></circle>
                    <circle id="Oval-Copy-8" fill="#242754" cx="133" cy="5" r="5"></circle>
                </g>
                <g id="Group-3-Copy-15" transform="translate(245.000000, 69.000000) rotate(-270.000000) translate(-245.000000, -69.000000) translate(176.000000, 64.000000)">
                    <circle id="Oval" fill="#CD1422" cx="37" cy="5" r="5"></circle>
                    <circle id="Oval-Copy" fill="#B1165B" cx="21" cy="5" r="5"></circle>
                    <circle id="Oval-Copy-2" fill="#841916" cx="5" cy="5" r="5"></circle>
                    <circle id="Oval-Copy-3" fill="#5CAA30" cx="53" cy="5" r="5"></circle>
                    <circle id="Oval-Copy-4" fill="#114D25" cx="69" cy="5" r="5"></circle>
                    <circle id="Oval-Copy-5" fill="#F9B234" cx="85" cy="5" r="5"></circle>
                    <circle id="Oval-Copy-6" fill="#146869" cx="101" cy="5" r="5"></circle>
                    <circle id="Oval-Copy-7" fill="#4576B8" cx="117" cy="5" r="5"></circle>
                    <circle id="Oval-Copy-8" fill="#242754" cx="133" cy="5" r="5"></circle>
                </g>
                <g id="Group-3-Copy-16" transform="translate(261.000000, 69.000000) rotate(-270.000000) translate(-261.000000, -69.000000) translate(192.000000, 64.000000)">
                    <circle id="Oval" fill="#CD1422" cx="37" cy="5" r="5"></circle>
                    <circle id="Oval-Copy" fill="#B1165B" cx="21" cy="5" r="5"></circle>
                    <circle id="Oval-Copy-2" fill="#841916" cx="5" cy="5" r="5"></circle>
                    <circle id="Oval-Copy-3" fill="#5CAA30" cx="53" cy="5" r="5"></circle>
                    <circle id="Oval-Copy-4" fill="#114D25" cx="69" cy="5" r="5"></circle>
                    <circle id="Oval-Copy-5" fill="#F9B234" cx="85" cy="5" r="5"></circle>
                    <circle id="Oval-Copy-6" fill="#146869" cx="101" cy="5" r="5"></circle>
                    <circle id="Oval-Copy-7" fill="#4576B8" cx="117" cy="5" r="5"></circle>
                    <circle id="Oval-Copy-8" fill="#242754" cx="133" cy="5" r="5"></circle>
                </g>
                <g id="Group-3-Copy-17" transform="translate(277.000000, 69.000000) rotate(-270.000000) translate(-277.000000, -69.000000) translate(208.000000, 64.000000)">
                    <circle id="Oval" fill="#CD1422" cx="37" cy="5" r="5"></circle>
                    <circle id="Oval-Copy" fill="#B1165B" cx="21" cy="5" r="5"></circle>
                    <circle id="Oval-Copy-2" fill="#841916" cx="5" cy="5" r="5"></circle>
                    <circle id="Oval-Copy-3" fill="#5CAA30" cx="53" cy="5" r="5"></circle>
                    <circle id="Oval-Copy-4" fill="#114D25" cx="69" cy="5" r="5"></circle>
                    <circle id="Oval-Copy-5" fill="#F9B234" cx="85" cy="5" r="5"></circle>
                    <circle id="Oval-Copy-6" fill="#146869" cx="101" cy="5" r="5"></circle>
                    <circle id="Oval-Copy-7" fill="#4576B8" cx="117" cy="5" r="5"></circle>
                    <circle id="Oval-Copy-8" fill="#242754" cx="133" cy="5" r="5"></circle>
                </g>
                <g id="Group-3-Copy-18" transform="translate(293.000000, 69.000000) rotate(-270.000000) translate(-293.000000, -69.000000) translate(224.000000, 64.000000)">
                    <circle id="Oval" fill="#CD1422" cx="37" cy="5" r="5"></circle>
                    <circle id="Oval-Copy" fill="#B1165B" cx="21" cy="5" r="5"></circle>
                    <circle id="Oval-Copy-2" fill="#841916" cx="5" cy="5" r="5"></circle>
                    <circle id="Oval-Copy-3" fill="#5CAA30" cx="53" cy="5" r="5"></circle>
                    <circle id="Oval-Copy-4" fill="#114D25" cx="69" cy="5" r="5"></circle>
                    <circle id="Oval-Copy-5" fill="#F9B234" cx="85" cy="5" r="5"></circle>
                    <circle id="Oval-Copy-6" fill="#146869" cx="101" cy="5" r="5"></circle>
                    <circle id="Oval-Copy-7" fill="#4576B8" cx="117" cy="5" r="5"></circle>
                    <circle id="Oval-Copy-8" fill="#242754" cx="133" cy="5" r="5"></circle>
                </g>
            </g>
        </g>
    </g>
</svg>